Coordinates
version=1
nRows=10
nColumns=40
inDegrees=yes

Units are S.I. units (second, meters, Newtons, ...)
Angles are in degrees.

endheader
time	pelvis_tilt	pelvis_list	pelvis_rotation	pelvis_tx	pelvis_ty	pelvis_tz	hip_flexion_r	hip_adduction_r	hip_rotation_r	knee_angle_r	knee_angle_r_beta	ankle_angle_r	subtalar_angle_r	mtp_angle_r	hip_flexion_l	hip_adduction_l	hip_rotation_l	knee_angle_l	knee_angle_l_beta	ankle_angle_l	subtalar_angle_l	mtp_angle_l	lumbar_extension	lumbar_bending	lumbar_rotation	arm_flex_r	arm_add_r	arm_rot_r	elbow_flex_r	pro_sup_r	wrist_flex_r	wrist_dev_r	arm_flex_l	arm_add_l	arm_rot_l	elbow_flex_l	pro_sup_l	wrist_flex_l	wrist_dev_l
     54.54500000	     -5.30808594	     -3.07393290	     -1.39380774	      1.05523017	      0.92598075	      0.45791123	     32.89806787	     -3.49139866	    -11.65421301	     18.13309814	     18.13309814	      2.63058922	      2.37928298	     10.95528887	      3.30724313	     -3.01064259	    -10.57867184	     11.98198867	     11.98198867	     15.21315877	     -5.00389885	     -7.43951088	    -12.32094121	      5.65145017	      1.13477769	    -21.13960411	    -14.77100982	    -12.51424428	     25.13626541	     47.13085157	      0.00000000	      0.00000000	     32.64653527	    -24.58479016	      9.38520585	     94.22802240	     47.03822384	      0.00000000	      0.00000000
     54.55721429	     -5.30619835	     -2.93234998	     -1.34387831	      1.05693415	      0.92439368	      0.45970823	     31.78551851	     -3.27854367	    -12.35822428	     16.58089455	     16.58089455	      2.76155299	      3.07470874	     11.29477444	      2.68587608	     -2.95834474	    -10.46626353	     12.02106555	     12.02106555	     15.71785624	     -5.05620541	     -7.49432277	    -12.07990825	      5.44979298	      1.21579113	    -21.94908583	    -14.60295187	    -12.43525320	     24.90487567	     47.12017442	      0.00000000	      0.00000000	     32.91657248	    -24.53592170	      9.36363087	     94.82710078	     47.06544392	      0.00000000	      0.00000000
     54.56942857	     -5.27693913	     -2.90111325	     -1.29519176	      1.05876704	      0.92292950	      0.46167003	     30.74274144	     -3.00716712	    -13.14482817	     15.72277766	     15.72277766	      2.91545517	      3.66886249	     11.29210070	      2.03486282	     -3.03845177	    -10.32085826	     12.08509341	     12.08509341	     16.29379794	     -5.12278485	     -7.32769157	    -11.88794289	      5.39181401	      1.38288201	    -22.64714523	    -14.43541655	    -12.37074206	     24.84457633	     47.10320600	      0.00000000	      0.00000000	     32.96305283	    -24.45583576	      9.42127288	     95.52843299	     47.09043793	      0.00000000	      0.00000000
     54.58164286	     -5.31110746	     -2.87863490	     -1.25833961	      1.06063509	      0.92143407	      0.46385188	     29.94711165	     -2.73937738	    -13.66668523	     15.55919163	     15.55919163	      3.04679125	      3.80374364	     11.02220424	      1.48720997	     -3.15366714	    -10.15133532	     12.22447531	     12.22447531	     16.87984754	     -5.22956966	     -7.17806038	    -11.62104170	      5.32427902	      1.46577849	    -23.13916139	    -14.21187767	    -12.32800624	     24.80391257	     47.09178154	      0.00000000	      0.00000000	     32.81111504	    -24.42904290	      9.44434725	     95.92471137	     47.10469197	      0.00000000	      0.00000000
     54.59385714	     -5.30657902	     -2.84265203	     -1.24312887	      1.06268785	      0.92018172	      0.46624916	     28.95640890	     -2.46693741	    -14.20273377	     15.29715295	     15.29715295	      1.87415488	      4.01452080	      6.87402577	      1.04706462	     -3.31405566	    -10.12914886	     12.80476970	     12.80476970	     18.73402018	     -4.65331531	     -3.95323100	    -11.43351375	      5.23234161	      1.39800086	    -23.51180127	    -14.12702096	    -11.94597776	     25.75072317	     46.97134198	      0.00000000	      0.00000000	     32.24728716	    -24.58032592	      9.21756129	     97.11601067	     47.24025642	      0.00000000	      0.00000000
     54.60607143	     -5.39228004	     -2.94896674	     -1.25130539	      1.06456567	      0.91896826	      0.46894750	     28.21608608	     -1.99978795	    -14.22528728	     15.42783224	     15.42783224	      1.20321191	      3.44081363	      4.53527228	      0.74918226	     -3.67616732	    -10.16301544	     13.36692684	     13.36692684	     19.65603553	     -4.45045034	     -3.01740805	    -11.14347998	      5.28000932	      1.73867762	    -23.43879152	    -13.90382363	    -11.42540842	     25.35751248	     46.92063688	      0.00000000	      0.00000000	     31.85743725	    -24.14246951	      9.02957656	     97.33239398	     47.32594309	      0.00000000	      0.00000000
     54.61828571	     -5.40967463	     -3.01696037	     -1.25613174	      1.06645210	      0.91813107	      0.47173393	     27.46985698	     -1.61640395	    -14.18883209	     15.69703547	     15.69703547	      0.45987866	      2.94275186	      1.69352272	      0.38317340	     -3.98492655	    -10.09726206	     13.93456040	     13.93456040	     20.61695387	     -4.40426096	     -1.46626147	    -10.95556175	      5.28714577	      1.66799181	    -22.90077377	    -13.79943269	    -10.92170961	     25.15797310	     46.86490192	      0.00000000	      0.00000000	     31.07948946	    -24.18490180	      8.76419633	     97.64410342	     47.43077711	      0.00000000	      0.00000000
     54.63050000	     -5.43817049	     -3.12071141	     -1.26120864	      1.06816953	      0.91758957	      0.47469340	     26.82681053	     -1.20316035	    -13.98597302	     16.06589235	     16.06589235	     -0.00267609	      2.30431667	     -0.35031927	      0.15725154	     -4.38403396	    -10.10454261	     14.70294940	     14.70294940	     21.34209594	     -4.38739459	     -0.36680686	    -10.79788546	      5.31334550	      1.74071873	    -22.14494764	    -13.61988943	    -10.30461811	     24.76669238	     46.81273714	      0.00000000	      0.00000000	     30.26967820	    -23.94591295	      8.41755036	     97.69254686	     47.54127122	      0.00000000	      0.00000000
     54.64271429	     -5.42475140	     -3.20671809	     -1.31399229	      1.06976202	      0.91758048	      0.47773184	     26.23182229	     -0.85754583	    -13.83106376	     16.53687353	     16.53687353	      0.22812192	      2.21608103	     -0.58452873	     -0.17767841	     -4.73633173	    -10.06273817	     15.26951528	     15.26951528	     21.35522194	     -4.72008401	     -0.34997544	    -10.76430359	      5.32276363	      2.08015600	    -21.40727527	    -13.32264190	    -10.22315157	     24.99011425	     46.80171273	      0.00000000	      0.00000000	     29.51994846	    -23.63778644	      8.62555949	     97.49304147	     47.52381413	      0.00000000	      0.00000000
     54.65492857	     -5.53568875	     -3.36060507	     -1.29425613	      1.07092676	      0.91755334	      0.48083100	     25.84831351	     -0.38193238	    -13.26286583	     16.90863367	     16.90863367	     -0.04564495	      1.02823038	     -2.27039252	      0.21089767	     -5.28805829	     -9.87696826	     16.92957252	     16.92957252	     21.90443573	     -5.18567811	      0.70028232	    -10.61040456	      5.40820627	      1.90450652	    -19.83206675	    -13.30614102	     -9.40146246	     24.04983980	     46.77971671	      0.00000000	      0.00000000	     28.27029749	    -23.30020221	      7.59530606	     97.23282692	     47.64396476	      0.00000000	      0.00000000
